<mxfile host="Electron" modified="2024-02-27T02:49:24.321Z" agent="Mozilla/5.0 (Macintosh; Intel Mac OS X 10_15_7) AppleWebKit/537.36 (KHTML, like Gecko) draw.io/21.4.0 Chrome/112.0.5615.204 Electron/24.5.1 Safari/537.36" etag="1caAu4UxQnPrHYsSD0uW" version="21.4.0" type="device">
  <diagram name="PÃ¡gina-1" id="pDGyZ_GW1WY5AgrE49ar">
    <mxGraphModel dx="1521" dy="854" grid="1" gridSize="10" guides="1" tooltips="1" connect="1" arrows="1" fold="1" page="1" pageScale="1" pageWidth="1100" pageHeight="850" math="0" shadow="0">
      <root>
        <mxCell id="0" />
        <mxCell id="1" parent="0" />
        <mxCell id="xsbdn-6Juy4nRUCFoKD5-7" style="edgeStyle=orthogonalEdgeStyle;rounded=0;orthogonalLoop=1;jettySize=auto;html=1;entryX=0;entryY=0.5;entryDx=0;entryDy=0;" edge="1" parent="1" source="xsbdn-6Juy4nRUCFoKD5-1" target="xsbdn-6Juy4nRUCFoKD5-6">
          <mxGeometry relative="1" as="geometry" />
        </mxCell>
        <mxCell id="xsbdn-6Juy4nRUCFoKD5-1" value="User" style="shape=umlActor;verticalLabelPosition=bottom;verticalAlign=top;html=1;" vertex="1" parent="1">
          <mxGeometry x="100" y="120" width="60" height="110" as="geometry" />
        </mxCell>
        <mxCell id="xsbdn-6Juy4nRUCFoKD5-2" value="MySQL" style="sketch=0;outlineConnect=0;fontColor=#232F3E;gradientColor=none;fillColor=#2E27AD;strokeColor=none;dashed=0;verticalLabelPosition=bottom;verticalAlign=top;align=center;html=1;fontSize=12;fontStyle=0;aspect=fixed;pointerEvents=1;shape=mxgraph.aws4.rds_mysql_instance;" vertex="1" parent="1">
          <mxGeometry x="745" y="90" width="78" height="78" as="geometry" />
        </mxCell>
        <mxCell id="xsbdn-6Juy4nRUCFoKD5-4" value="&lt;font style=&quot;font-size: 16px;&quot;&gt;Redis&lt;/font&gt;" style="sketch=0;aspect=fixed;html=1;points=[];align=center;image;fontSize=12;image=img/lib/mscae/Cache_Redis_Product.svg;" vertex="1" parent="1">
          <mxGeometry x="745" y="230" width="95.24" height="80" as="geometry" />
        </mxCell>
        <mxCell id="xsbdn-6Juy4nRUCFoKD5-8" style="edgeStyle=orthogonalEdgeStyle;rounded=0;orthogonalLoop=1;jettySize=auto;html=1;" edge="1" parent="1" source="xsbdn-6Juy4nRUCFoKD5-6" target="xsbdn-6Juy4nRUCFoKD5-2">
          <mxGeometry relative="1" as="geometry" />
        </mxCell>
        <mxCell id="xsbdn-6Juy4nRUCFoKD5-17" value="POST / DELETE" style="edgeLabel;html=1;align=center;verticalAlign=bottom;resizable=0;points=[];" vertex="1" connectable="0" parent="xsbdn-6Juy4nRUCFoKD5-8">
          <mxGeometry x="0.4848" y="-1" relative="1" as="geometry">
            <mxPoint x="10" as="offset" />
          </mxGeometry>
        </mxCell>
        <mxCell id="xsbdn-6Juy4nRUCFoKD5-9" style="edgeStyle=orthogonalEdgeStyle;rounded=0;orthogonalLoop=1;jettySize=auto;html=1;entryX=-0.031;entryY=0.513;entryDx=0;entryDy=0;entryPerimeter=0;verticalAlign=bottom;" edge="1" parent="1" source="xsbdn-6Juy4nRUCFoKD5-6" target="xsbdn-6Juy4nRUCFoKD5-4">
          <mxGeometry relative="1" as="geometry" />
        </mxCell>
        <mxCell id="xsbdn-6Juy4nRUCFoKD5-16" value="GET" style="edgeLabel;html=1;align=center;verticalAlign=bottom;resizable=0;points=[];" vertex="1" connectable="0" parent="xsbdn-6Juy4nRUCFoKD5-9">
          <mxGeometry x="0.512" y="-1" relative="1" as="geometry">
            <mxPoint x="20" as="offset" />
          </mxGeometry>
        </mxCell>
        <mxCell id="xsbdn-6Juy4nRUCFoKD5-6" value="API (backend)" style="shape=image;verticalLabelPosition=bottom;labelBackgroundColor=default;verticalAlign=top;aspect=fixed;imageAspect=0;image=data:image/png,iVBORw0KGgoAAAANSUhEUgAAAQsAAAC9CAYAAACksViOAAAEDmlDQ1BrQ0dDb2xvclNwYWNlR2VuZXJpY1JHQgAAOI2NVV1oHFUUPpu5syskzoPUpqaSDv41lLRsUtGE2uj+ZbNt3CyTbLRBkMns3Z1pJjPj/KRpKT4UQRDBqOCT4P9bwSchaqvtiy2itFCiBIMo+ND6R6HSFwnruTOzu5O4a73L3PnmnO9+595z7t4LkLgsW5beJQIsGq4t5dPis8fmxMQ6dMF90A190C0rjpUqlSYBG+PCv9rt7yDG3tf2t/f/Z+uuUEcBiN2F2Kw4yiLiZQD+FcWyXYAEQfvICddi+AnEO2ycIOISw7UAVxieD/Cyz5mRMohfRSwoqoz+xNuIB+cj9loEB3Pw2448NaitKSLLRck2q5pOI9O9g/t/tkXda8Tbg0+PszB9FN8DuPaXKnKW4YcQn1Xk3HSIry5ps8UQ/2W5aQnxIwBdu7yFcgrxPsRjVXu8HOh0qao30cArp9SZZxDfg3h1wTzKxu5E/LUxX5wKdX5SnAzmDx4A4OIqLbB69yMesE1pKojLjVdoNsfyiPi45hZmAn3uLWdpOtfQOaVmikEs7ovj8hFWpz7EV6mel0L9Xy23FMYlPYZenAx0yDB1/PX6dledmQjikjkXCxqMJS9WtfFCyH9XtSekEF+2dH+P4tzITduTygGfv58a5VCTH5PtXD7EFZiNyUDBhHnsFTBgE0SQIA9pfFtgo6cKGuhooeilaKH41eDs38Ip+f4At1Rq/sjr6NEwQqb/I/DQqsLvaFUjvAx+eWirddAJZnAj1DFJL0mSg/gcIpPkMBkhoyCSJ8lTZIxk0TpKDjXHliJzZPO50dR5ASNSnzeLvIvod0HG/mdkmOC0z8VKnzcQ2M/Yz2vKldduXjp9bleLu0ZWn7vWc+l0JGcaai10yNrUnXLP/8Jf59ewX+c3Wgz+B34Df+vbVrc16zTMVgp9um9bxEfzPU5kPqUtVWxhs6OiWTVW+gIfywB9uXi7CGcGW/zk98k/kmvJ95IfJn/j3uQ+4c5zn3Kfcd+AyF3gLnJfcl9xH3OfR2rUee80a+6vo7EK5mmXUdyfQlrYLTwoZIU9wsPCZEtP6BWGhAlhL3p2N6sTjRdduwbHsG9kq32sgBepc+xurLPW4T9URpYGJ3ym4+8zA05u44QjST8ZIoVtu3qE7fWmdn5LPdqvgcZz8Ww8BWJ8X3w0PhQ/wnCDGd+LvlHs8dRy6bLLDuKMaZ20tZrqisPJ5ONiCq8yKhYM5cCgKOu66Lsc0aYOtZdo5QCwezI4wm9J/v0X23mlZXOfBjj8Jzv3WrY5D+CsA9D7aMs2gGfjve8ArD6mePZSeCfEYt8CONWDw8FXTxrPqx/r9Vt4biXeANh8vV7/+/16ffMD1N8AuKD/A/8leAvFY9bLAAAAOGVYSWZNTQAqAAAACAABh2kABAAAAAEAAAAaAAAAAAACoAIABAAAAAEAAAELoAMABAAAAAEAAAC9AAAAANKjM2kAADcFSURBVHgB7V0JnBTF1X9cy7EoBlHwAFEODxAvYjxQJFHBaFDAG4hGgeAJJoKAChGjeKCC4I05BD5PQPRTQTxA+DQiiYqKghAQlEMWBNxl2V3Y/fpfy3+oqe3u6ZnpOZap2t9sVVe99+rV66rXr+4a5eXlFWKdlYCVgJVADAnUjJFuk60ErASsBJQErLKwFcFKwEogkASssggkJgtkJWAlYJWFrQNWAlYCgSRglUUgMVkgKwErAassbB2wErASCCQBqywCickCWQlYCVhlYeuAlYCVQCAJWGURSEwWyErASsAqC1sHpEaNGupnRWEl4CcBqyz8pJMDaVAUi79cLEXbi6zSyIH3nUwRrbJIRnrVHBeKYv2P6+W4Y4+T1q1ay8PjHpKKigprZVTz95oq9q2ySJVkqxHdJk2ayL777isP3j9WjjrqKJk2fZq1MqrR+0sXq1ZZpEvS1SAfKAy4gX8cKF1+fZYsXLTQKg0lEfsPErDKwtaDKhJo3LixfLdqtZzX9Tzp07ePrFi5wiqNKlLKvQirLHLvnQcqcZ06dQTdkwXzF8jJHU+W4bcPjwyCBiJggfY6CVhlsde90nALVLduXaU0pk6eKi2at4hYGeHmYqlVBwlYZVEd3lIW8Fi/fn3Jz8+XSZMmZQE3loVMSMAqi0xIvZrmWbNmTSkqLKqm3Fu2k5WAVRbJStDiWwnkiASsssiRF22LaSWQrASsskhWghbfSiBHJGCVRY68aFtMK4FkJWCVRbIStPhWAjkiAasscuRF22JaCSQrAasskpWgxbcSyBEJWGWRIy/aFtNKIFkJWGWRrAQtvpVAjkjAKoscedG2mFYCyUrAKotkJWjxrQRyRAJWWeTIi7bFtBJIVgJWWSQrQYtvJZAjEqidTeXEAbJ0ODg22x35tbyG+6aqk1zDLXl2U8sKywKVAz8c34YTpud9MDerj3EjvyvXr4icHsUKnm2vm7ySL/OZ8dngkzecOG7P/8yGNxLNQ0aVBSsH7qzAsW04vg0nTPfs0UsuueziyKlMgMsGR36hJG57brDc8GIfueyxC+SJ2ROy8gh9yg0K+KCDDpIWLVrI0888qUTJtGySK+tBu6PbqfM/Tz3tVKs0suEF7eahRnl5eUbsfVZWVN6/3n2vYgenMdGVlZXJ1q1bZcDAATJq1Cipl1dPJWXK5Ae/qMz/mP+E/HvTXKlZ5vTgKiqV2KbNRVKnZl0ZfO5QOe2YMzLKJzKnbGe9/ZYMuXWoFGwsUEf9I23btm3S8vCWct99Y6TzmWepMrU8rKXgkN5YrqSkRLpf2F0eHf+oUo6x4IOkk9cpU6fIyDtHys6dO4X1gHXgvN+eJ2MfGivNDmymSGaqDgQpz94Mk3ZlwcqBrsawYcNl1cpVkYrsJuji4mKpXbu2jL57tPTp3SftlQX8onLO/upVeWnxsyr/mqV1olgt3l4uZaXlsr2sUA5p1EKGdR8phzdrlRFekSm6c9dfd70s+mSROj8zilnnQW+ERx55pDzz9DORBmrC6s9hKgvWA3Q3Bt08yLceIF/8rr/hernj9juUMrQKQ38z6QmnTVmwcqAiDxt2m7z3zvvSqFEjwSnSQRy/iOMfHa+6K8BJZYUhvx8umS+TPrtfKvJKpEZpXambV1fKinZFrAryvm3LThUsKy+Rsl1lcmqrTjK42zDJb5Cv4tPBqzLjhw+XqVOmBpItlIb+JWdZvPwwlAXlinGJW/98q7z15luBeAVPqAO42+TeMfdKr569FJuplKuXHHI1Pi1jFqggO0p3yN1/vVs19H9/8h/1xQuqKPByUEk2rN8QucsClQ10WfnCeoGkCfp3zrpeHlkySCkKKa+1J4vd3Y89ESJ18ipFie5IgzoNZdGqj9V4xosfTE3peAbLj+4criB8dcargWUL+dPk18uSqjB4ZT3AuASuGcB1A0HrgX4JUtduXdUdrXxfqeLZ0t0jgZRaFqzIbv3RPSzEH8IXrqioSG4edLMMGTpEjWeE8YUBv/jS/u2j8TJnw1TJz9vHsSbyKhl0lEWNnbWjxip0ztkV0eMQhqXRsM4+ct1vBoc6nkHZBu3OmXwl8pyoZUFecS3iiOEjIhZCIjwQh12p3n16y5gxY9JiwTHvXPVTYlmgcuCH/iiuwbtl8C3q6xHWVwx3WWBADn1tXOqb7N2crMyzvpwh/d78TURRoFJU5JXGrBtQFHC0LnQEWBolu0rl3jdGqhkUzKRQPjpc0DBx0Z3DjBFmjmBx8asblE464Mgr6gEsAVyLCBcGr7BGYJXAkjr6qKOzcpYnHTJOZx6hKgtWDpjwuPYO19/hGrwgI+2JFJrKJ9G7OckvGvA1L58nz35zt2IDFkUVV8N70qh+g9hiRNdkWcESuWlyP3ls9lhljiP/oI680ozHNHMi3bmg+SUDR14xhgLrD/Xg22XfpqQeoA7gN2rkXXJsh2Ozfo1OMnLNNG7sWh6QQ1QQmPAYl0ikPxowG1cw/W7Ovlf3EY5nuALvjgS/qMwYl7h1wUVSUa9YdTs8cVzGKTxhPRI4nvHOV2/LFRO7C8Yz2LA8UFQ0YODQnWvbuq2yqOLp6yvkNP0jr1jbgSnZ12a+Fte4RKJswlrBnSbmGp1E6Vm8qhIIbcwClUQNOn2+OBQzsyqrwWIw1Yr+7PIVy1U/1m0sA7xiluMvH1wnBx+8vy9hc8xCzYYUVnY7iMhuCJ8xjYqxCigHP8ep1seueVZND3vxCuXX46Iesvzb5Sn5OvvxqKfFGrOAXKGATznllKi1HTqNdIQ5njH1+SnS7dzzUjprlo7yZEseoVgWrCSY1w+jP5qMcGCSwsJZtOgTXzJPvDtOtq32b8y+BLTEIN0QDTwSbJS/r3y47F/y3pdzInFugXvvuVd++P6HjCoKN77c4mbMmJFRRQGeMJ6BaflHHh7nxqKNS1ACoSgL5p2Xt3vmgBEZ8rGIK4jbz2msm37wH8A0BzhLSkucJZLR4xemZYG8YVXAuoCjrx60f9t3FGtP3sF169cqy8MbIntStm8vzB5mLCehSiBYqwo1S29iWHQDqwCNHRZC0Pl3b4qxU8o2O8vID4nuVuhYkW7I7kh9mTfhYFl4KQzCuPnrCja5RackDt0zOMg12x3qAVy66kC2yyNb+AvVski0UBxneHDsg7Lqu1XywovPS9NmTdV8fKI048H7caW/dRGLlq4oMF6hu21F7l9ar3gdN4wwZIvGd8edI6T/gP5SUFCgxnTCoB02DfCZVzdP/v7Pv8nM12fKYS1byObNm8POxtJLUAIZVRYYiELl7d23tyz5Zona+4Hl0djg9NGHHwmUByo7v4oJljEmWnlh5SY1N0CzG6JgjG6IPmbhttaiuLisSldkS1Hl19MtzzDiKNuLelykBnsH9B8od95xp1r7ctIvT8wqpUGFNuS2W+WLxV+oQUlMDb//3lx58qnKXbK0NsKQjaWRmAQypiwwso5KiwU7Y+4ZE1mFiRkBzgpg49jX33wtqPCpriwFS91FYXZDyutU7gFJTNyVWKm2KvA1btO2jbw/7321QxQKmHJtdXgrefnFV2T6jGmS3zA/5XKNJSfwSoX2p8F/joCjOwqHPSBfffWV2kQWTx1wdlNHaNlAOBJwbyHh0PalctDBB6lKi8rLiqwjMA4VHVuiL7n0ErXzUIdJNlzbGY/FD26n0xMxFQPiTcvCbcwCcLEcrAu6VFoV+Erjazx71mzp0L5DFdlSrrDe8BXH1zzVlhvLbfpo/JOnPhdRaEjHArmbnrlerpzYQ97+7C2FgjEsWEWz58wOpNxQHigLWKbWhSeBjCgLmMit2wbbwo3KDde+/TGhK4sd5ZWDflQaG1dWtRpMBVIn39lQZnRDgr4OzIqk2qoAL0F2ZFKuF154kdpnE7QMYcKVlpZKmzZtFUlYEjhECCtcv/95uYp7dM4D8senr1IKBBHHtjtWxXv9Y9cLYzPLli+LKEsveBsfnwQyoiziYzF+aJqwQTChMKg0vKwLnY6aOtUjAoZhTcC6SKVVQVbiKT9xMu2vKfhOpn02Ve3Y5WI2LJH/YetqmfX5m4q9krLKqWiTVyoJdmthheCwJCpEE94+JyaBjCmLCudIiEy6vHq1Ja9e9N4MWBimdeHaDUmAcazpSIeiSIC1rEGpV7PqtG6dWv7nnaArg5kzrNbEWIxXtzZrClmNGcnYOosajjWfDQ4Ko3RHhbIuUFkLftomNX7Ik/0PqRzMMLshsXg2p05jwdv0xCSAcQlYFHeNHiWY6YGzlkRisgyKlbOWhZuAoCjgNq7Zs+5CWRYVjpj0cQqfTWVuU6duedm4aAnUr1l5opi52vXnsm3SuH7l+aB169QVjHNgup0zKFZRRMsxlU85bVnUcowH56iJPd2RrXtEjYVaBx5eaV1IDWcaTj8pC4rDR2HsoRI7FMvMjk2hKkStWllitlVlzTMGh/G+eMP/yrhZ98lHKxYouF/Uayyjf/egOjQIVgP2IL01+y2pV6+eGrwEkLUmPEUaekLGlEXoJUmQIBQGnG5N4HnzBk1ZIEJ3ISkKnWSY4U/+/Yk6vhCNy6sxIQ3us08/k0zt6dlnn31k/Ljx8vBDD6sl/pgmv73n3Wr2Y6Gzwe7SM65UCoJlgI/FWnCMUw/2X1oksNd2Q+o3aOArwBp19nQ1YF24ue+/dh99j+qSuCFmMA77KXDYDA6dwXZxKAUqBrDFZ560hYODMrVTGCee4aSrdu3aqbM6KDacjH7Zmb3Vo6kU8GzGEc/6qZVAxpRFpgc4K8p2mxSOfGFFuLnCrWV7FmrtHrNQ6yx8LItsGODkcXM4wBeH0MBRSeCkLV7ohJO2UnWKmZs83eK4sQ1HL/JSITc4G5d5CYSmLGrVjq+fnOmpU4rey6pg+poVP1cGdysIdQ0AE138eAc482qFc6aGyQoaISwG3PDG4+Zw0tYxRx0jUydPTcvpVSZPfs9QWuk4vd2PB5vmL4HQlIV/NtmXym6Il1VBjmFdFGw0do7qMyMETNAv3eXR1UmQnokGhVFaUiqXX3aFczvZkFAPTjbzSvaZh/DiigCs1sQRjbCE9G5UsnlY/MQlkLPKok5D5wyKbdGH2HiJUQ1++nRD9C3qXjS84nEhUToclEamxibiLR9Pb3/8scdDOb093vwtvLsEMqIscIfpiSed4M6RR+yRRx4l69ev90iNP3rf7c1lw8afAiNuXFU5rhGrGxKY4G7AwtKfpWFeQ1+0us7S5WzYRQkesFPVz+2//wGhvScqt0RPb/fj06bFL4G0KgtsS8eW5Nudg1j07cix2MboN3ZJvjLtFQUaz1ZlL9ojL75Hjj+svRSVGl0MDwQu2EpmI5lOGt0P5D30/OGRdQR6uh4eettQpSwytTsUvEDmGAfp16+fzlpUGO8Jm9iGjRgW6nkZXqe32+5JlPhT/hCasqhd03vJBjf6nHFWJ/niqy8iiiKeKTBWRJ5tAKUD5ZOIAy3M6U++aZo81KfyUNcgSuPHH4oq7zk1MtUPvzGSXB+R1+mtz5Q5Q+fJdV1v8p0KBK/Yao5zPXBIULpPuoKMoShwKTFkz70XrgVzIsEvzifBOSVhHrLD8Yz5cxfICcedoGZ5kJdVGF5vIvz4UK4CwAvDTsfmzZtX6RejUbc/tp3c/8ADoSyoYeXA8fhDht4qb75e9WJd5PnGW2+o/FCh/BzoAebJtyfK43MmClZU+s1QtD+yeSU5bfrUHLPQp0+5JR2byKAkjj60rQw+d2jcVxmy3PrF0pgiTZWDgkd38bzfnidjHxorWGEJF0ue5If84nrFG2+8KfQTv6HA0E0ZP2GcPe6fQk+xnzJlAZMZh5bgAJIg5yvEW05WRnzBBt08KOpOjXiUBfIlLSxiGjZ1iMxd+q6n0sDu0UMPbeS0mugdq7rCMJUFd5uOvvSvcu7x56miBm10plzIa6oaIfJDQ2x5eEsJ48Z68ouLm3FrGCwErq0wyxbvMxTaypUrlQJLVJ7x5pnL8KF1QyBEWBccl1AHkCxbphQFXmTYL5M0sfwX53U+Mu4R9R5R0eMdDCQtdE0m9H9cXrv1TWl36JGu4xmq4RuKwqsCYVPUztrFclXnq2XB6I+VomBeXjix4onPk66w6xKKOYzxDNBAA4SCh0whW+YXiy+vdODDYcMXLn4KqyuF94yt6XOdowOtS48EQrEswCq+ILioFyP3iZityRYX+WNO/sEHHpQ333xTZrw6Q5nOrKzx0OfXEMe6jXzpDqU08rUZC2VdHLJfFEnTssBtY+2aHie3dBsWtwkfRdjngXzCIho+fLhMnTJVXa4T7xUK7HIMGDhARo0albKDY8iv3pXCZUDx8Mvux50j71QHPEM8ibxjH7HaJA8JhKYsQJ+VAeFMvEA9/zB4AD1YS8+8+0SV8YxWhx4qHNjUFcVWZ2wCuyWv+83guMYlTN7j4Z+4i79crBZe4Wa4IOMZVBK/PruL3Hff/WrwMp58AZuII7/oSg0bNlxWrVxVZazLpAuLFT8MtA4ZOkQpNMBkop6ZvOXKc6jKYm8UGis2BlTvmTla/veLV6Vpw4NUUdVg5+4uyabNRSru8o5XeW6CcpMP6eOg2iffniBrt66Rgxs1l4Hn3iTYUAUXtEGQ1qy335JBNw1WYw9cq2DmjS90kwOayMSJE9S0dDz5mLQSfSa/WIY+YvgIRcYcz6BC692nt4y4fUTKrLREy5BLeFZZBHzbrNi4UHn0jJHyw09rpfXBh8n++zdwbm13Zg06nC/XdrkxsAlPelBCzy54TJ3hoJ9tgZWd53foKb8/4xrPC569WCdtbCIbc899kp+fL1gVCcdxiWw5YYq8ogt51113ydNPPi3Yul6zZk01G9Pxlx3l8SceT5vV4yVTG+/0HJzBQP+5RSulKAmwcr/4wVT5+/xJcsbRneTK066OywoADXZv3lg8Xc28IBMoCIxzfLXh80gc4uO1VoBDPvUpZsTjCz1mzBilgPAc1GoBbCod+cV4xl/uGiU7infIjTfcmDGrJ5Vlra60rbJI8M2xchM9SKMjDgZOJ819XN1S1qBefcE4B5QEux7oktz32mh1sjVOuMZgaSLjIOCNeaIRwsKId70Ey5cun/wyvyByJaz1UysBqyxSK19FnQ1AVwKNnPUaUBJQBuYiLcJDqTzxXuWUMI7H5wwLlQqIB21MpBkUPg1isVlUMwlYZZHCF8YGiqlNni2pj0vE6l4A36u7gvGM/r+5Ti18swoghS/Rko5IwCqLiCjCDaChoxG/NP9/ZPLHk9QYBK2DU1t1ksHO+gssAovV0KlwMPbwiHOYLcYzYI3wFOzrfn1L0qtCwy25pba3SsAqi5DfLBs3Zk2eeHecFJb9LFQSh+93tPzpd3+OazCU7Jl0f9qxWSkNdE0OadRChnUf6UmXuLBSsAQfLpaSYr7WtxKgBKyyoCRC8NEouV4CFgDGJbbvKFbKot9Z14diAbDh6+MZYB0zKbBYru10Q9TKVcDDKpn3zbvyi30by0/bNsvJbU9RisUqjBBeeg6RsMoipJeNRonpVHY5QBYNuO+v+kmv0y4LfWwB+WEs5Ln5fxNz+nXE+aOjzsjAjtpux/1WcLx+8yYtpNDZ/dqmWVurMEJ697lCxiqLEN40Gi66Hfe+MTLSNdC/8sgiFV9x5AunWzOcap101fPKwkAa3Lfrlyl/xYblzhTtjTLn81mRjW0qwf6zEoghgVB3ncbIa69O/nzNZ2oQEwOP+LLjshysaYCSMBUFGjl/bkJhmpdPHNLGsvD7fz9Obj5naGTgc/HaTwkm6zavVWEe37e9eHskzQasBIJKwPt4q6AULFwVCZzc9lQVZyoJREIBoPvwc+HPsk/DfaJmRJAGB2sAlgCsALpWTVurrkPLpkcoGjpthIGLrgW6Pvr0LBTJrM/flOOaH++MVVTyha7LH7r0J+mM+iwzmNDLlFGmbOauErDKwlUsyUXuLHdmHZw/06FhYEbisscuUEnoqsACgUMaZ1Aw06E3eAXwVeUYCLoZvU68XG1WC9q40O3AFO6agtWKFPab1HOOEgiKr5BC/kclAcW5fsP6arG6NGQRVDtyVWt0tStC9WPYVARoOJjdeHTOA2rMA+mmhaA/YxB1ecE3StG4NXjA0jGd1wGa8XxOp4/yQklc/Yer5JWXpqlb0XC62VldOsvzL7wQ6b6lkyebV2wJWGURW0Yph8COSyzrhtWAMQ+s7MT0ZvMmh6m8Yals2bJFTX++sOifCg43jcMSOe2YM6pYCKYyAhEqjZQXJmAGPXv2lK+XfC1t27ZVGDh/47tVq6XzGZ3VwcBYD5JtPAcs2l4LZgc4s+DV/mf5J8qSgKLo2PJXqouBsQY0GPzQZcBgKawDrNjEQiwohE/XfJwF3MfHAqwKHHqDA3rMsytwYhbO2fjb3yfFR9RCp0UCVlmkRczBM2mcf2AVYHxh+ZU957huKv3nsm2y+LsvqsBWh4h//+ffaozCjVecu/Hll0vckmxchiVguyEZfgHI/ogmbRQXWBb+9levy+aiH6XLUefKQY0PVl0RLtEGEL7Mr94yR8HjH5VIJKIaBIoKvaducejNuvWVU73VoCg5xaJVFlnwutHFwMwIxiEwbrFo1ccqTNZwlgWO2mvZtJWaAj2u5YlZd3gNebX+3isBqyyy5N1iCvWJ2ROUZaHPfIA9bEZbVrBE/bC0Gw7K5bbuo0JfRq6I239WAi4SsMrCRSjpjkJXAt0LXGWIMyoWLvtIrYkoKF4nqzd8rw7xxdoLOAxsorsC6+OGv10rTw34Z7rZtfnlqASsssiSF4/FWrVq1VKWAqZDTYf0NQXfqdWYGNeAwvhh62q12pOngJs49tlKIEwJWGURpjQTpDXwmasj522+NPh110FLDHJCKVzX7CZpXL+xYL0FHJaFW2WRoOAtWlwSsFOncYkrNcD71fuF6l5g/QT2haBLYjp9+nRzcWWXBDDcHGbC22crgbAlYJVF2BJNgN5vOnRVi7IwEzLy5aERhQGlYf6wapPdEGTFadcEsrUoVgJxScB2Q+ISV2qAcbP6tIUvyI+F61QGN03up47+x3Tpvs7O1G3ODlW4lZtXqNWbUCqwQnBoL7fB69aIvjdEIabhn55/WNkFpVkd15qEJaN00rHKIp3S9snrsWuelftfuytyMxmnS6UgGgmzIVAUOIELy7/dGorb3pBoKuE9sUHjXpJvv10mfguumOvSpUvVQC6fTX/b1p8FVzAGodWmbRvp0L6DIuEmC5O2fU5cAlZZJC47T8zaNeMTKyo5BjCx1oLnZWJX6fpNm6S0oki2lxRKg7oNpYVzJF7rJkfJBR0vijoHw5ORFCdAUYD3vr/vq25wb9asWaAcsSfE6+Z0xH+77Fv5w1XXBKJVWloquOJw+vTpWSGTQExXU6D4anU1LWQ62MYMBd20D19UX302Jsb7+fwqqg1jB/b2A1VphMcD88EhN7Aq0tkN+f0f+sq777wb2T0ak/EAAFAYXsrEDR27Vy+44Hx5/725bsk2LiQJ2AHOkASJLeVq5aWz/gHnTfSd0EttIUdDxo8O2839HJRAkB9okDbOwrhsfHc18Il4KIzT256JYMoc8saZFFP+OVW8bmpPWeYGYVgqiz//QhZ/uThK1gaYfUxSAlZZJClAoKNxY60Dzt7ENnM01pJdpeoA39ueGxyZ3QDszH9Ng6ec2w5Tpvn5VBKYZv3j01epQ3MI37DOPvLwlU+kxSTHCVeNG++xqMhDJvy8vDz5yTlAx7rUScB2Q0KSLRQGVl5OaTkj6nh+7OnA7AYuAsLYg37pEM7FjMfRQsEXXb8OEcqJg56XnnFlpFsSD+1EYHHRcrY4rHC1LrUSsFcBhCxfNmh89Z98e4K6bhCNWXforvD8TSiZIA50AYuzNLl6E3ikxesQEReUJmCTceDp1NNOlQ3rN8Q1xpBMnl64BQUFsnrN6rRYVF487O3xVlmk6A3rSuPNz2eog2pgWWDtBBZhYW0FnV/jJh0e5qtbJrGuLST9VPngDeMEXTp3UYfZmCdfpSpfnW5ZWZmsXLlSnnr6CRnQf2DaFKXOQ66ErbJI8ZtmY3fLBmdv4mxNzIDA6UqDeLqFwjM6sYksrOsQ3fiKJw58Yo3F+HHjZfas2YLGG8sFmekIQgf5nPTLE+XGG26UzmeeFSW/WDzY9PglYJVF/DJLCgONi2sp0J1ANwIrMbE1XT8RC+MS/5j/hLy1+A01YIpMAZuq6xCTKRQVW1Aad//1bnnm6WeqnMGpyugom9NOP02mTJ4SlJyC0xVtXIgWOLAE7ABnYFGFC/ifVZWH9MJawF6P979+WwafO1QNkuLOVI5LYLwjk+MSQUodT0MNolhKHIsLLh66Qfi0MMlJwCqL5OQXNzYaALoduG6Q4xCYyUDXAnel1plVORiKZ8Rnelwi7gJahL1WAlZZZODV8ouJqVb8zNvXyRLuLuVAKHGYZn0rgXRLwCqLdEtcy48KABvCsN8Dd5CWS4k0qX+QXHhKr4xfMaixaoNWAi4XclqhpF0CUBr5DfLVGZx65lQmepwNWwlkSgLWssiU5I18rWIwBGIfs04Cdm9I1r0Sy5CVQHZKwCqL7HwvlisrgayTgFUWWfdKLEN1nYugrcs+CVhlkX3vZK/nqGnTAzyXhWP3aPMWzfd6GVTHAlplUR3fWjXnufuFFwmOw3Nza9askR49ergl2bgMS8Aqiwy/gFzLHrM+WME65r57ZNmyZVJcXKysDPh4HjZimJzc8WS71DsLK4bdSJYlL2XXrl3CI/diHfgLOMDQz5IiBGIDVzSirNg0h+3tzz//vKxZvUZ1Pbp17ap2jwY9yIbyQsZ+MqOc6AdiNIuAILNscFZZZMNbcHhAA4JjA/Cq/Hp6spWfDRf56mE+w9f58uKJuKYPfD+n77IlHBVF0LLp8iAN0w9Ky8Qzn1k+M57PSIeLR2aAD0oXsJl0VllkUvpa3qxgiDIbgFmZWPnpa2TiCup09XBcRAIAm7ST5dstSz+afmlutLItDvLLBmfHLLLhLezmAZUaDl9w/SuuKxKm6z7CdKTBZ/qxKpyZB/HC8HXa5I++F/1Y6cDTYXR5mTT90nQaJp75HEuGJnwYz+BPl18YNBOlYZVFopJLAZ5fpQ6anReNeCscKmk8DSkIfya9ktIShWbGI9KrHHo+QWB0eLdwGDRANxXyAt2w+AOtZJ3dG5KsBLMYn40wWypcFT6yrPYlIy+UjfiJVAmzq6bTyIRFo+fPsB2zoCQy7Otf/qCVAzhmJWOFrdIwA5TPpAUUk54bTADSCYFQDrps3AgRDmmE1eOI4yYvpOllRJiyS7SsOg3QD0LHD8atLKCbbmeVRbol7pEfK7mZzIriVdFNeFZ8xLPSmzDxPpMm6PlVai+6XjhsVPS98OONd5OZHw+knwp5kXYyPsuTDI0wcLPMEAyjSNWfBiu27uulYrwex3AyFd6ky0acDE3y5eaTLn0Thvmb8eYz+KaDUqVi1eOZbvpeeZtwXs+6zMAvXLI0vfLKdLwd4Mz0G0ggfy8rJAFSUSgmXVR6NoAowDQ9BG10VBBkK4iSIGyyvi4z8BuU51j5prMMsXhhurUsKIkM+nqFM9lwqzT61wzhICdmm3T1Zy6EYl46P3rlZ7qOa4Z1GNDhM3z9Wc8jqAXBvNzgmQ9h/HzyQhgT14tPwuu+SUtPQzhWOmF0PMrG5EuHyUTYjllkQuoueZaUlcT9VUJl2l68Xb5a8pULxeBR7Y5pJ3Xz6lZBoFWhK4wqQElGxMrDTTEgy1h4SbJVBd2LDxMwKJyJ5/ecLUrDWhZ+b6kapEFR3HnHndK127kJcVtUuF2gLGK5VDQC5AlFxIaPZz0fPYw0OLe4ypTU/CdvQRUm4dLNZ2pKH03VKotoeWTkCWYnKxkZCFLZ2P2AovjT4D8TNW4fO0Fp+urI5CkILzqeHg5ihgOeecTKk+n09bwYJi0+Z7uv80srwu19ZLocVllk+g04+bs1KDQGViL4cH4NxKvBK8Qk/+n5xuKFPOuV3q18Jkt6Hkgzn014v2fgkg8TjrzEKgfxEuVDx/PiJdk8iJ8u386GpEvSAfJhBQaoXsHq1qkbs/HQygiQTSAQnRcgsPGjEegNwSTGNP3LqIdJR8cjjh4XJGzyyGfkAZm5OfISqxxuuH5xzNsNJlb5wC9/bvjZEmcti2x5Ew4feqXSw6zgsVhFhSUeKl88eCZt0tHjQdN0XnkQlj7h6Jt0CId4E4YN0eTJ69nE1/MyaSUiM9LQ6Zq8oDzgQy+XW9lIww2WadniW2WRBW/Cr3Kngz1+hXU+9EYEHvQ0NABYMrzrhA2DvDKdz/B5doXeXWKj27Vzl5qNMRsW6Ti2TIQUp3kZQRg+09fzYRx8NGrmi2eUXbfKyCfSzLwQB0ca8HX4ytQ9/1keKgJdhnugKkOAZTrxTJhMP+95C5nmJIfz1ytKMmLQv26seKTHxk+f8cj7v6v+K0VFRdKhfYdIA9FpERY+4NG4Fi5aqGZRcJMawicef6ICQ+NBQ533wVyZNXu2fP/DGhV/6CHNpXPnM+Wss7qoaxnREJlH7bzKZeQbNm5QfBzR8giVxw7nNvW5c9+XefM+UHR6X9lbup17nuKRfKxYuULefWeOfPnlEvlp62b5RaPG0r79MYJzPnF8n5vSQL7Ex2ld7zj4q1Z+p/DBrM4rlIkpS8BQyZj4yP+AAw6QX57cUc7+9TlRygR5utFyi0Me2easssi2N5ICfvQvKRuonk2zps3kggvOl+dfeEGaHtBUVWjimPBQFGggj45/VCY/N1mRmTDxUXny8afUFYxIG3LrEOnUqZNcccUVcuCBB8o+DfeR9RvWq0Z9YfcL5e6/3q3O2YTC0JXX0m++kaVLv5FW/QcqBYQp4V69eki/fv0kPz9f9ttvv4iiQAO7c9SdSon0u6afUg7I5+fCnwV0hgy9Vdq2PlKGDxuuFIPeINFo4YbfPlyKCoucPHrKlY4iIj4UJxTQed26yf0PPBDhVSE5/4CPdTFDhwxVUX369onC//HHH5UCeuThcfLg2AeVEobS8nJeSsQLPmPx5eXlFfaXeRmUlZVVmL/ikuKoOPPZqYAVH3/yccVDj4xFMArWpIVn4Js0EI/3v/y/yyvO7XquooNnN3zEFxYVKjj4eIbrc1VvRRe8gMa6DesidADDHyKBB/i3Zr+pYJgPYObOe79i8pTJqkwXX9pLwQKI+OQVZUA64OkAQ1qMQx7IS8cHDJxzMHDFK9NeIWgEhrBIAK9ndemsZINnnb5eBuKQPzzDQQ6nnHqK8hFH/Hh90s+0b2dDMqamq2aMLwy/ekg1v+rms1MfqxLxiQG+SQPg+Oq2OryVDBgwQH1t9T48vvy0MhA/8Po/KssA3Q/dbdmyRS0Om/naTGX+w2oAXf2HuAb1G8gzT08SfHXX/7g+Ul7muX17YaXVMnmKgjXLCDh80W+84UZ1uC/S8dMtB2WxOHmhy3JR9x4y4o4RkXEJyBddF3SPevXspSwVL15RxknPPit/uWtUpKjAh/WE7gboo6sEK4P5w8cz4tENGv/oeBk/frzKn+9Xf8cRwtUgYJVFFr0kNqxYLLHSsYERHuMF8f6IiwaDxgOzfNbbb0X62lQwoPv0M0/KGad3ipjlbCBoOGgQ6F7Uc24TAy3d6Y0DOIAB7L333BtpxICv36CBTJs2Q/r376dgKA/64AHjI/kN8yOngDNNz49hvUxQEOADMvveuZsE5fBzSkk65YAS3VG8Q4q2F0Xwv132rTP+0lmhUz46LcYhf1xrsHz5txGF5scvafD98jlbfDtmkQVvAhVI77uDJfNZZxPwcGg8cC+/9Ip8+tmnKhzPPzSCCRMmRsYp8IV+4MEHpK/TBz/++BMi8Wyk8/9vgUz+x5QqygADi/h53fdBfskbG9GDTl5ohLA2aEGsXbs2oggIr/sYH3nwgbFVeNBhzDDGFGbOfDVqlWuhMy7h53QL7KBmB6uxEPBJh3tOdOf3vurVr6f28ADflAVoQDno8XqYeZgfBsbH8inXWHBB0q2yCCKlNMOg4gVxrAiXXHqxaggwfeH0ih6LjllR8dW/77775aabbpSXX3xFVWQ0aAw2Tp8+PdKodbpQOpdfdoWKQkU3aeqwevics8+WRYs+UcqB8V26dGFQ+ZQFZh/ABxzMe5RVL6dbY1W4jig7dOggUEwyuHI6tGPHX8q9946RWwb9KSavUGzjx41XjZllO73T6Uo+fXr3UQobMLojz+APac/9fXIEX4fTwxU75umPUeFo6lFJMR925Z3uuUAtJrIBYJWFIZBseFSVzEVhmA3C/Nqw8aCx0qGCA49TgHrYbNT8osH0RuNHVwFKAuMUGNVHH54Nw+SlTds2EUVCOuTByz/+hBNlwYL5EWVRvH27tDz8sChwlgllhWI5wbF44BjPsrIsfAYPhIECxNcdyga7a1GOvn37yqWXX6IUI8pLBwWs7wBGOXUHulBWp556qsBiuWv0XaqrgrUgVN6A1/GAQ3npPuDIY+n6vs7g0VZEherqtvzcobenfMkQt8oiGemFhMsKrpNjJYoVp6ezIpqNFbQYp4cZp9NAGAoB4xdLliyRmwfdLF3P6Ra1BgMwJn+tjvCukOQLeHRoWPvvv79s3FjAKOUf6Ezdmk7hO42xoGCTIJ0Whg6HKVNOfeo+YICPcRXANDiggSofrIIOx3VQVsPSpUvVVG/Xbl0ja0eApzd+PNNBPti4h/ETWB3r1q9VyqNTpzMi+FQelDHlRR+09HCNmvkS33A1ufHxQ1Y+Vln4yLq6JemVLwzezzzzDLm41yUy4vYRvuTw1fZyaKheDmsnMKAK59kwHXyWC+MEkydPloULF3qR9I2HEqFDN+bYdseqmRcoH1gts2fNVt0VlAcDoH4Lu6AwMEaDnxs+FOzZ55wdmRlivvRZJj5XB98qiyx4S/z6uLGiN7agFUx9iR1rAk4Pu9E34wCPLgumNSc+NlH+tfBfqn/+/NQXPPv3GLPwcl48o8xY/ISZDTizS0V6On79+vXV9C6snkQcFBJlDboMo2vS+cyzIt0hNP75Cz5QszXIZ8yYMWoQFmHiIAyFoeRl4EN2nzkDzlgYhtWgo0aNinQDgVddnZ06zfI3x8ZCPwi7Oqwe1nHduj5IBzwaLgY4MVOC/vy1116rVkt6NWjgwcT3c2hU+MHBxwzLpk2bnKXRTfzQotLyGzZwcDaqOFgGqrGiwRo/pOnptFrY0DmLpBPXaWDWAmsosEoVqzt79uwZURKQWyx8rIIFPmaOOp7UUfpd289TGeo8ZHvYKosseENeDZeseTV4pps+GyYbJ9P1fNhwmEYfDQHLoKEgMJCHRoSKjwY0ZeoU14YCXCyx9lMmKAN+SlE4Ptxnn/5HTjrxJBU2/5m8o8FjOhd7QOD8ZGKmoawoE8oGug+PeyiqHIjjD7QBj3IjT1gcOFwIi81QPhxjqOObeen4oAErqHmL5mqvDJWM/h4AX12cVRZZ8qbMxqGz5Zemw+lhVGL8dFwvBUEYVOZp06cpxQAFgcoOBx+zIrNmzVKrF1npmV9dZ7bhgw/m8zGwP+eddwTTmPzy64hmIwTvUF4YjCRfhDcbH8pDfKR9t+a7yNgIZkY++ugjokb5pryYePbZ56jBXj574TPd9Lt17ar2vJjx1e3ZKosseWOs3G7s+KXFgg+CCxgoAKxynDFjhlIMZgPG81NPPaU2iaFPrzfQxo0bO7MaG6OWb7vxhTjmhZmE1q3bqGlMKAIzPy98fOXfeW9OlGVgKkG9zLAGsCAL3Qnd6WVQPO22dnRcnS66QHD6MnddBjptt3CDBg3doqtVnFUWWfK6+HXPBDuo9OjjX3/d9TL2obGq4eoNBTzhGQ0Fay+w7gKNUG8s/Zwl2ly+rceb5UEaLAMskho0aFBgJQE6UCh/HDBQ7SsBv8yHvpkXFSAsAXQnaJFc2P0imTp1sm+3CbRId+arM6O6S1hjAQvMr9ul8zJt2nQ1TRtUIeq42RS2yiKb3kaSvKBxJPJDpcfmLCgCmPqmoiBbaGyYKsS0IvrtbCxY6o2zME4++eTIRjTwgcam/xCHBU9/6Hd1ZEyEeZFWJC+nK6E7KFMqrFv+NFgtScf4AWjCsWHDpwxgKQ0bdpsaqGVDhX/5ZZerPSg4c4OwxCctxIMn7JNZ/MXnEWUDGUBhTZw4IdIlA6xeTp0HKBU4yIdlVRHOP+LwOYi/fmM9wc90CxaWC36pdJWSTmUOlnYgCejmr4nAimxWNsLh4BZU/OId0fsVmB7Lx+IrrJyEIuDX1w0HDXZn6U4Z0H+gWqyFhoSxDTh86bHQCXFY3IQdrFgW3aRx5WxHweYC+b8F/ycvvPh8ZMeoW17YdQpnyoPPwGGemKXASkysZ8BZFxiPQPdixX9XCKyBZcuXKkXBgVrQhQwhTyxdh4WErz5WYrZo0SKyFwaH8KxevVqmODtfoQgnOz6VDWhgsBdnf2DGCF2pHj16qMVY3PuBsmLAF7ThsN9Gx+d7pM/3q4Bj/Gt92koFsfzDw6VVqxKZ/c4u6dYba1Uq5SbSUGZNzZdOJ4dvB9hLhmK8nHQls+LEmx8q5jtz3okXLQoe6xcwao8KHYsPDh6WlJaotQhouH2v7qO2nWN9Br7GaLAY+8DiKTQ2OKygxE7Nbs6BMvqycZ0RlAVrLw5rfljUrIkOwzC+5sgHg67z5s1T+VQ4++swfgLFh0FJfM29yoQGCl7Nk65Ao0YtUcvKSQMKiuVm/sTH2AuWrPOkLZ2HC53TutSuVUeRUtkRX/dBq3hlW6ko99/cBpyGbdYpVCqLGk23Oc+Fck3v/cVZLS8vzNikws8+7Oyl+WmLYLl3rTzv1bWKWMB/VlkEFFSqwfRGisqjP7vlrVdeNBzdoXKzMuvxfmG3r7wbvJ4v84CywElZ+q1mJk+k5dV4QRfKBi5W2UmL+fPZ9PUykW/4cGy8fjTIK3FN+n64gCW+judFq3T10XErC0ctS6vTfnTI7ycV25zFbcUVsmJFXWVxFG1zFo87y73DVBbRtUwvlQ2nVQKoeLGcXtFY2YGDLgCcHqc3OB1PDysk7R948MIjmJmHl1LQG6pJl7R0H3TNDVyIc+NXl5Vbg9TzAz4c+abPeJ0HhvU89TDTdV8vpx7vFWb+SCcPepwXnlt80wNQZzDLskW6X1xTHvlLoz2Kwg0hybjwOzZJMpSr6Gik/PnJgBXMD8ZM0yujHjbhzGc/WPCh81KrdqWy0+NIT1dAjAvqu/FAOdHXlQfoJpMf8PU89TDS9LzizcdNNiZ95BHU5e9bQ6ZNqpySff3tzYLxjO59d8iGjZXnnQSlExTOKougkkojnFclRMVi5WJjhc94VkY9jXFB2HfLl/j0dTrkBXE4zh8NiXFu8DquGQa8jsuwCRfvM+jgB/r6T48HTT3NLw83GfnBM43lg0/HMuoKiGlBfHQ1ev6upmD84vIe+ysUKI1WpzmDFylwVlmkQKjxkoynArKysaLR1/PU4/QwYUiDz34+8ekT1nxmfKI+6IEvP970ND3sJT+dHvmFz7DOq1ucnp5smPTpx0MPFoSfw6zI80/WlRUfHiitD9/XAS2Uf768Ryn54caTZpVFPNLKAlhUNjYChskWKyLSEeYz0+l7xTM9Xh/3eaAbgjEHNuJE8vDjGTzpNPWwF7+kZ8qLPJKmnh6Erld+8cYzXy9lB3pYU3HFwBLZozAqux0Y3ERam1MKZfrrlesrjmhfRzoeXydeNgLD29mQwKJKLaBfhTFzZmUPUrEBGwQOedAcBi96mPl7xWEKEgN98fCl00I4nvKTHzffrbzx8OWG75YP43Te3cJ6OYlDX+fLazakYRusndkiBx+0n0Jbu26LHNFyX1nxcUN5/NkyuWFE5S5cWBTlzgTIf1dhKlVU16RZ4w2hzoZYy0KJtnr907+YfpyzMvrB6GlosGy0epgwbnFI44wA+VJxWt+c+EH8eHk2abopRvIVi7ZfOhu9mR/lhXi3sC4zkwb5MuP1PFZ8mCe/+tV+snbdTvU7/tiGMud/nMVnznjF9dfWcQY4mynlsXxluaMoylUYceiahO2sZRG2RBOkp1c0kkDlZeXXw0z38lMF65VfovFoJCg3/UTpEC+echMHfhA8HUYP63QSDaP8alFW2VrHvGsUTcZZK5H/i/2UckACuiNYbBWB80u36yyiZbk3P1FRoIwIB6mkycLEwg+rYYNO2E6XV6K03cqPuHidGx0/GjtrHCmS5/xM54hpGxZ27haXCudpQH7pIYvYWhaa3DMZdLMswI9e6Vhp2Sj0tGR512mTLuPUtKgzgMl8483LVAx6WWOl0fLQ89Tx9XiGTf4RH1TZAjaIQjTzoGwoM+YJP4jj4jYsMsMYUFgO9MJydgVnWJJMER1WQpI3nxkfps886DsHayesKMCXX+PW06g42FipKHSYIOUk3/DZqIPgAUZv7EFxmB/gmWdQXMJx3IfPuk+56HGZCFvLIhNSt3mmXAJUNCnPKIcysMoih162LaqVQDISsFOnyUjP4loJ5JAErLLIoZdti2olkIwErLJIRnoW10oghyRglUUOvWxbVCuBZCRglUUy0rO4VgI5JAGrLHLoZduiWgkkIwGrLJKRnsW1EsghCVhlkUMv2xbVSiAZCVhlkYz0LK6VQA5JwCqLHHrZtqhWAslIwCqLZKRnca0EckgCVlnk0Mu2RbUSSEYCVlkkIz2LayWQQxKwyiKHXrYtqpVAMhKwyiIZ6VlcK4EckoBVFjn0sm1RrQSSkYBVFslIz+JaCeSQBP4fFiCimwl01c0AAAAASUVORK5CYII=;fontStyle=0;imageBorder=default;" vertex="1" parent="1">
          <mxGeometry x="330" y="110" width="183.65" height="130" as="geometry" />
        </mxCell>
        <mxCell id="xsbdn-6Juy4nRUCFoKD5-11" style="edgeStyle=orthogonalEdgeStyle;rounded=0;orthogonalLoop=1;jettySize=auto;html=1;entryX=0.997;entryY=0.45;entryDx=0;entryDy=0;entryPerimeter=0;" edge="1" parent="1" source="xsbdn-6Juy4nRUCFoKD5-10" target="xsbdn-6Juy4nRUCFoKD5-4">
          <mxGeometry relative="1" as="geometry">
            <Array as="points">
              <mxPoint x="950" y="266" />
            </Array>
          </mxGeometry>
        </mxCell>
        <mxCell id="xsbdn-6Juy4nRUCFoKD5-12" style="edgeStyle=orthogonalEdgeStyle;rounded=0;orthogonalLoop=1;jettySize=auto;html=1;" edge="1" parent="1" source="xsbdn-6Juy4nRUCFoKD5-10" target="xsbdn-6Juy4nRUCFoKD5-2">
          <mxGeometry relative="1" as="geometry">
            <Array as="points">
              <mxPoint x="950" y="129" />
            </Array>
          </mxGeometry>
        </mxCell>
        <mxCell id="xsbdn-6Juy4nRUCFoKD5-14" style="edgeStyle=orthogonalEdgeStyle;rounded=0;orthogonalLoop=1;jettySize=auto;html=1;entryX=0.75;entryY=1;entryDx=0;entryDy=0;" edge="1" parent="1" source="xsbdn-6Juy4nRUCFoKD5-10" target="xsbdn-6Juy4nRUCFoKD5-13">
          <mxGeometry relative="1" as="geometry" />
        </mxCell>
        <mxCell id="xsbdn-6Juy4nRUCFoKD5-10" value="Worker" style="shape=image;verticalLabelPosition=bottom;labelBackgroundColor=default;verticalAlign=top;aspect=fixed;imageAspect=0;image=data:image/png,iVBORw0KGgoAAAANSUhEUgAAAT4AAACfCAMAAABX0UX9AAAAwFBMVEX///9AQTeDzSk0NSnT09A4OS5+yxk8PTKNjoh+yxt9zBLU8bPF6Z9jZFuK0y3q99mysq/F7Jr0/em/64/4/vHd9cLe3t0wMiRZWlH19fT+//vGxsP8//dLTEKCg325urez5nrx++Xl99Hp6ehzdG2g3Flqa2OW2Efn+NSoqKSQ1TpOT0Xk5OPZ8ryUlY/v7+7Q76225YGo4Gic2VOz5HwkJRW06HaTk47M7qaqqqZ+fnel3mS75Y+a1lOGhYNxcmoD4+67AAAJq0lEQVR4nO2dC1fiOBSAW2pbEhBEXlJAoIooijzqMDi6u///X23atNCmSZrSGVnW+52zx7Ngh/DldZvcVE0DAAAAAAAAAAAAAAAAAAAAAAAAAAAAAAAAAAAAAAAAAAAAsuj1X05dhHPm6Yf92jt1Ic6Xsqkbw6tTl+JsIfp027jpn7ocZ4qvzxd43zl1Sc4Sqk/XTbN8d+qynCGRPiJQf4I5JC8HfbpuPI9OXZxzI65Pt7t/n7o8Z0ZCn653IYjOBaPPuDh1gc4L0FcI0FcI0FcI0FcI0FcI0FcI0FcI0FcI0FcI0FcI0FcI0FcI0FcI0FcI0FcI0FcI0FcI0FcI0FeIE+kbOIUu79/+LJQV4TYqg0IFWIY/j9PX6/eLbKlXpqV5cyJ+v75ardxFS3Mq3Lc7913TsF+X3DcVmIyxhWftYy/XtNGN/UBFHaVv9Nzt3hy9pe5OcalUsmoNYQNouVN34lU1F3PeXJbNoMzHJoYNPmuo5BdgUz/qeu3iwbB12/jl7+keoS+4nFz/z1H95/oNk9L7X8CaL4S/tXW08VhrfKTfeR9GJbaNyyOGmsrcKlGQ1Wzlv/6ubNrBx5v2Uy+/vruyYYfFN8u5+8+g4Vc9ssYz/0vg6aPg97YDbbxzG2P29f5l9OlU4K+c2/q05UdY81XeL/CkH4QZN+Whnktf712PJ8UM3/N9+GJvbVANPOL1NfcXNwNtO/HcbfLVzn1cHm0CeXJjacuPY3lunvL3b4z4p9vJtpepj7k8Z2Jl/QPH+mzYi2s73iS8crSKVnUSjWP5arLF1fPkNdEaY0B4LJnDkqRrL1UYmT7e5er9p7Wmug4zRjiHKM6BV0ODV2LlIZC2/DRIMofFWf7k1Z6yPtHlav3H2dWsdF3TcRwrzIEXl+Kat43bzNRO2vL5WHN+gJTgapgpT6ZPVPm6Uv9p00EvNdIMPhFSmANffsm7TTALSqAtXwyeZgyBfUntKeiTVb6fF/gg7T/1DRbOc5Ot/82smmQO7L2mxuhcVUhbvhSE3/hzWEBW7WXoy77cNv8WBjGtpryFuR7mtsyI0bOw3cdLYIiqsC0Y9FSHwB53ylLWp1L5fmr0O7//BOMbwhvJBLei4+KW9ysXD121micCeXFofSse9JgePOOG8Wq1J9SnfDk3iLme0qYln11bzWBWttI9eKQqLyjBMBUFVCzpoMcIHKeCqI7aoCfSt3xQv5wEMWwDdKaWP7BxY7sEdHjEKcs3OQpPiv/K1ktNXZ7/+Wz7u9NV+y1fX1m95RK6T8zlbSJF8dayPUMlNGVfzfPpZAT5xdaKyrB3wKoy149yff20vstctW/eMpc3rBJSvS1yNqhUY03nKv3v13d1cn01fkQweFxUKov2JNatm+r6TH6xzkWfLSi+XF/dm4bhSXtTwxYB4/nbvnUq6zOHt/dcgV+kzzYFsYiaPhJj8afjDH1tjLA/uQ42sZsAhNdOLn2m+ZMEKB3enJb6/D+ij4ToyyfunKKiL7hH73Gvz9RXsirhdIz8tkf+I4XGbzn0HQ5/jm5S3+0r9IVn/15uOdWnoC9aJL/jXJ/qPFx9O3863i4e6/W6uyPzbRSvqOgzY8ElqUJ2+e+P67ON2yi25NzIZuozzcMWzUWq/6i1Po+0vV30mrMl8cpGVZ95m4gsX5iw8I/rMxOLY1dD5vtn6bNpz3FWNL4cMdd32d0bnr7BvFSqHe4v/ch2PlDUpzO3ZUxc9qf1meXk20tGT4Y++5lq8DD+CNbo+vEB0LTZoF+oD8WimTHG+FpNn33DvN3pfqk+g13Wuc3YKmL0XWrREhOy1uSrXhwuJ7ds6a03buedkYJ6i72olvtIl0u/h75xuISBq3F9/F0Prr4G3eedbT5X7iS2SvRN9KHDZ0X6RMtVXH0Dj1YAQiR0mW920TrVd9Un3vHl6tMGzdphHQlhtB58Y33idV6RPk27Xo1nNXLLRi1anuLM+3/Qtw2LhBtEn2FLN4pE+nxadXfRGM/9eQhXv48+l2aJYK/uLyfKtyl5+lr1emxV3nGnpXCd73voCxJVom2zO/kOK0/fWxTnhUzIV5w5Z6HPZAPbh1xhs25T/ZM3xeQknr41Si6Kt5BEXzIH59T6dDuRU9FntxIy73lzPuyKp69CwhYvFu6trBIKMtHOQF88p6KT3r7NXnGJrxkcp8+/yUVeOxQ1qZL/DVYBz0LffkOeu32rst6XJ61TuGCFcM372Gw+ZsEWrzhw+e/po+udI27OitJqM7leNS2NH7g06GIzQij4iT36K2eiz79NeOZv3yrudSinpQniPndjYd8d8u/b5jvJYv1/Up/OLtPm1Kec1ikMmyeVz+3HX9PNW9XdzyJnpE9Ajo1KpSFwR2bV6n4vMnnXwVL3onVToT7znnl7mWwHJvsEuOt8+jCbJZJTX5fV9yDUp5TW+YjjCS5EHxbpa/mZfmjLvpzQZwxTUdNVYhBK6dOaqglCQeObsY3/RbChzMd8ZntkX5rXlz0ErnEsd6pqcbJYKKsgD6uWSjON6TPtn5yQqfNPrIRpfcKc3DQINdMpan31/CrSnNIxsTwxMnMIdJpWsDT9SUZA14/wuHm4YYrfLH1OYa/P7ooC9li+OrsX4UPPQih03C23aL0nlfQ8XTyYSdJydYXM3DC1tDb1/GYw4+QgTsbiHPthVLOSFP7DnjNPX/TvZ8gTJ6gr5ZbSvXt+8aT5kdlDYCy9kzP0hSdlBCc8hmHNyg+QREd9+Pqi1i0mI4VO3gP1zAc3yyvA7mZE0c4uWNUjjpqp9xY0uf5DkFw/lNfs4RsGQ6BIX/wsFmfQw+usBZCMHph5ukV6MOBHZggzqIxnM2+dylV7DI92CE+3DZUfye0P8mJ9ZGYX5ZkKqy7OUtwD1Z7YzL/L890/K90DO078R8B16qRMissfyueWyBD4g03PjDPZ8HqwpOqSCM4U2Ybi88L5Q2C+p2U7bW+fQe+Ex9pkRwK0ZZ6Dw3cZptszViCqVdXPRbNH0nT5Pk+K9BBo53tWe4WMgZEv+l0yD6T8VpgTHsiSVl2adyatLO+Dwi+YA6E5z/S21lYYokQnZRSOQ/1W4ueLjqi6ZTkepGecZeJxOKeQY93qQHSqkp6U+Sz2RIGjiE63HVl1+7TM/IeJA6Ih8NjD8IswhBAcg/kCFjOMrNrRVRc0oOOOsgeQIdAwjv/7CoNPyyIj4OwrBz2mBLvNukDVkSm+qxZtCLh4fSry1z0mzc24UuxRJKdl2YG/zQEAAAAAAAAAAAAAAAAAAAAAAAAAAAAAAAAAAAAAAAAAAKDKv5Pa4odxHo8uAAAAAElFTkSuQmCC;" vertex="1" parent="1">
          <mxGeometry x="860" y="410" width="180" height="90" as="geometry" />
        </mxCell>
        <mxCell id="xsbdn-6Juy4nRUCFoKD5-15" style="edgeStyle=orthogonalEdgeStyle;rounded=0;orthogonalLoop=1;jettySize=auto;html=1;entryX=1;entryY=0.25;entryDx=0;entryDy=0;dashed=1;" edge="1" parent="1" source="xsbdn-6Juy4nRUCFoKD5-13" target="xsbdn-6Juy4nRUCFoKD5-10">
          <mxGeometry relative="1" as="geometry">
            <Array as="points">
              <mxPoint x="1140" y="433" />
            </Array>
          </mxGeometry>
        </mxCell>
        <mxCell id="xsbdn-6Juy4nRUCFoKD5-13" value="Public API Currency" style="image;aspect=fixed;perimeter=ellipsePerimeter;html=1;align=center;shadow=0;dashed=0;spacingTop=3;image=img/lib/active_directory/internet_cloud.svg;" vertex="1" parent="1">
          <mxGeometry x="1090" y="230" width="126.98" height="80" as="geometry" />
        </mxCell>
      </root>
    </mxGraphModel>
  </diagram>
</mxfile>
